<?xml version="1.0" encoding="UTF-8"?>
<!-- Generator: Adobe Illustrator 17.1.0, SVG Export Plug-In . SVG Version: 6.00 Build 0)  -->
<!DOCTYPE svg PUBLIC "-//W3C//DTD SVG 1.1//EN" "http://www.w3.org/Graphics/SVG/1.1/DTD/svg11.dtd">
<svg version="1.1" id="Calque_1" xmlns="http://www.w3.org/2000/svg" xmlns:xlink="http://www.w3.org/1999/xlink" x="0px" y="0px" viewBox="0 0 226.8 226.8" enable-background="new 0 0 226.8 226.8" xml:space="preserve">
<g>
	<path fill="#010101" d="M171.9,112.9c-31.4-34.3-62-67.7-93.4-101.7c11.3,0,21.8,0,32.3,0c1.5,0,3.2,1.3,4.1,2.5   c30.3,33.1,60.2,65.8,92.2,100.8c-5.2,4.8-10.5,9.2-15.1,14.6c-25,27-49.7,54.4-74.8,81.4c-2.6,2.9-7,4.5-10.5,4.8   c-9,0.6-18,0.3-28.8,0.3C109.6,180.3,140.4,147.2,171.9,112.9z"/>
	<path fill="#010101" d="M19.7,215.2c31.7-34.7,62.3-67.7,92.8-101.1c-31.4-34-62-67.4-92.5-100.8c0.3-0.6,0.6-1.6,0.9-2.2   c10.5,0,20.9,0,31.4,0c1.5,0,2.9,1.3,4.1,2.5c30.3,32.7,60.5,65.8,91.6,99.8c-7.3,7.6-14.3,14.6-20.9,21.9   c-23,24.8-45.7,49.9-68.7,74.7c-2.6,2.9-7,4.5-10.5,4.8C39.2,215.6,30.2,215.2,19.7,215.2z"/>
</g>
<script xmlns=""/></svg>